# xmcd CD database file
#
# Track frame offsets:
#	150
#	15187
#	24157
#	44345
#	56080
#	66347
#	85212
#	98617
#	113432
#	120450
#
# Disc length: 1881 seconds
#
# Revision: 0
# Processed by: cddbd v1.5.1PL0 Copyright (c) Steve Scherf et al.
# Submitted via: CDex 1.51
#
DISCID=6c07570a
DTITLE=高田渡 - FISH'N ON SUNDAY
DYEAR=2003
DGENRE=Country
TTITLE0=魚つりブルース
TTITLE1=頭を抱える宇宙人
TTITLE2=ヘイ・ヘイ・ブルース
TTITLE3=自由な奴
TTITLE4=秋の夜の会話
TTITLE5=初めての我が児に
TTITLE6=質屋
TTITLE7=雨の日
TTITLE8=漣
TTITLE9=フィッシング・オン・サンデー
EXTD=YEAR: 2003
EXTT0=
EXTT1=
EXTT2=
EXTT3=
EXTT4=
EXTT5=
EXTT6=
EXTT7=
EXTT8=
EXTT9=
PLAYORDER=
